<?xml version="1.0" encoding="UTF-8" standalone="no"?>
<!DOCTYPE svg PUBLIC "-//W3C//DTD SVG 1.1//EN"
 "http://www.w3.org/Graphics/SVG/1.1/DTD/svg11.dtd">
<!-- Generated by graphviz version 2.36.0 (20140111.2315)
 -->
<!-- Title: /mnt/c/Users/Philip/Desktop/router/Project/Assets Pages: 1 -->
<svg width="254pt" height="111pt"
 viewBox="0.00 0.00 254.00 111.00" xmlns="http://www.w3.org/2000/svg" xmlns:xlink="http://www.w3.org/1999/xlink">
<g id="graph0" class="graph" transform="scale(1 1) rotate(0) translate(4 107)">
<title>/mnt/c/Users/Philip/Desktop/router/Project/Assets</title>
<polygon fill="white" stroke="none" points="-4,4 -4,-107 250,-107 250,4 -4,4"/>
<g id="clust1" class="cluster"><title>clusterdir_ffd1f789ec7bd0a45fc6ad92579c5070</title>
<g id="a_clust1"><a xlink:href="dir_ffd1f789ec7bd0a45fc6ad92579c5070.html" target="_top" xlink:title="Project">
<polygon fill="#ddddee" stroke="black" points="8,-8 8,-95 238,-95 238,-8 8,-8"/>
<text text-anchor="middle" x="123" y="-83" font-family="Helvetica,sans-Serif" font-size="10.00">Project</text>
</a>
</g>
</g>
<g id="clust2" class="cluster"><title>clusterdir_879de4fd393548c22b98301f5b1bb4c5</title>
<g id="a_clust2"><a xlink:href="dir_879de4fd393548c22b98301f5b1bb4c5.html" target="_top">
<polygon fill="#eeeeff" stroke="black" points="16,-16 16,-68 230,-68 230,-16 16,-16"/>
</a>
</g>
</g>
<!-- dir_879de4fd393548c22b98301f5b1bb4c5 -->
<g id="node1" class="node"><title>dir_879de4fd393548c22b98301f5b1bb4c5</title>
<text text-anchor="middle" x="195" y="-39.5" font-family="Helvetica,sans-Serif" font-size="10.00">Assets</text>
</g>
<!-- dir_b5c0ad125fda175bded5335c6e0b3543 -->
<g id="node2" class="node"><title>dir_b5c0ad125fda175bded5335c6e0b3543</title>
<g id="a_node2"><a xlink:href="dir_b5c0ad125fda175bded5335c6e0b3543.html" target="_top" xlink:title="Plugins">
<polygon fill="white" stroke="red" points="150,-60 96,-60 96,-24 150,-24 150,-60"/>
<text text-anchor="middle" x="123" y="-39.5" font-family="Helvetica,sans-Serif" font-size="10.00">Plugins</text>
</a>
</g>
</g>
<!-- dir_ff5880aec0b5804adb3d31a53d335c49 -->
<g id="node3" class="node"><title>dir_ff5880aec0b5804adb3d31a53d335c49</title>
<g id="a_node3"><a xlink:href="dir_ff5880aec0b5804adb3d31a53d335c49.html" target="_top" xlink:title="Scripts">
<polygon fill="white" stroke="black" points="78,-60 24,-60 24,-24 78,-24 78,-60"/>
<text text-anchor="middle" x="51" y="-39.5" font-family="Helvetica,sans-Serif" font-size="10.00">Scripts</text>
</a>
</g>
</g>
</g>
</svg>
