<?xml version="1.0" encoding="UTF-8" standalone="no"?>
<!DOCTYPE svg PUBLIC "-//W3C//DTD SVG 1.1//EN"
 "http://www.w3.org/Graphics/SVG/1.1/DTD/svg11.dtd">
<!-- Generated by graphviz version 2.36.0 (20140111.2315)
 -->
<!-- Title: C:/Users/Philip/Unity Projects/router/Project/Assets/Plugins/Router Messaging System Pages: 1 -->
<svg width="418pt" height="111pt"
 viewBox="0.00 0.00 418.00 111.00" xmlns="http://www.w3.org/2000/svg" xmlns:xlink="http://www.w3.org/1999/xlink">
<g id="graph0" class="graph" transform="scale(1 1) rotate(0) translate(4 107)">
<title>C:/Users/Philip/Unity Projects/router/Project/Assets/Plugins/Router Messaging System</title>
<polygon fill="white" stroke="none" points="-4,4 -4,-107 414,-107 414,4 -4,4"/>
<g id="clust1" class="cluster"><title>clusterdir_b5c0ad125fda175bded5335c6e0b3543</title>
<g id="a_clust1"><a xlink:href="dir_b5c0ad125fda175bded5335c6e0b3543.html" target="_top" xlink:title="Plugins">
<polygon fill="#ddddee" stroke="black" points="8,-8 8,-95 402,-95 402,-8 8,-8"/>
<text text-anchor="middle" x="205" y="-83" font-family="Helvetica,sans-Serif" font-size="10.00">Plugins</text>
</a>
</g>
</g>
<g id="clust2" class="cluster"><title>clusterdir_b9153762626c4c54c9f7fb8eedc47a78</title>
<g id="a_clust2"><a xlink:href="dir_b9153762626c4c54c9f7fb8eedc47a78.html" target="_top">
<polygon fill="#eeeeff" stroke="black" points="16,-16 16,-68 394,-68 394,-16 16,-16"/>
</a>
</g>
</g>
<!-- dir_b9153762626c4c54c9f7fb8eedc47a78 -->
<g id="node1" class="node"><title>dir_b9153762626c4c54c9f7fb8eedc47a78</title>
<text text-anchor="middle" x="320" y="-39.5" font-family="Helvetica,sans-Serif" font-size="10.00">Router Messaging System</text>
</g>
<!-- dir_5d27f46ca1da7528cf5b862db7ea216a -->
<g id="node2" class="node"><title>dir_5d27f46ca1da7528cf5b862db7ea216a</title>
<g id="a_node2"><a xlink:href="dir_5d27f46ca1da7528cf5b862db7ea216a.html" target="_top" xlink:title="Parameters">
<polygon fill="white" stroke="black" points="235.25,-60 168.75,-60 168.75,-24 235.25,-24 235.25,-60"/>
<text text-anchor="middle" x="202" y="-39.5" font-family="Helvetica,sans-Serif" font-size="10.00">Parameters</text>
</a>
</g>
</g>
<!-- dir_9b03a082fd188e431d2249e59b725049 -->
<g id="node3" class="node"><title>dir_9b03a082fd188e431d2249e59b725049</title>
<g id="a_node3"><a xlink:href="dir_9b03a082fd188e431d2249e59b725049.html" target="_top" xlink:title="Routers">
<polygon fill="white" stroke="black" points="150,-60 96,-60 96,-24 150,-24 150,-60"/>
<text text-anchor="middle" x="123" y="-39.5" font-family="Helvetica,sans-Serif" font-size="10.00">Routers</text>
</a>
</g>
</g>
<!-- dir_9a9eab036ee1a6f29fd3bc1173c600e3 -->
<g id="node4" class="node"><title>dir_9a9eab036ee1a6f29fd3bc1173c600e3</title>
<g id="a_node4"><a xlink:href="dir_9a9eab036ee1a6f29fd3bc1173c600e3.html" target="_top" xlink:title="Routes">
<polygon fill="white" stroke="black" points="78,-60 24,-60 24,-24 78,-24 78,-60"/>
<text text-anchor="middle" x="51" y="-39.5" font-family="Helvetica,sans-Serif" font-size="10.00">Routes</text>
</a>
</g>
</g>
</g>
</svg>
