<?xml version="1.0" encoding="UTF-8" standalone="no"?>
<!DOCTYPE svg PUBLIC "-//W3C//DTD SVG 1.1//EN"
 "http://www.w3.org/Graphics/SVG/1.1/DTD/svg11.dtd">
<!-- Generated by graphviz version 2.36.0 (20140111.2315)
 -->
<!-- Title: /mnt/c/Users/Philip/Desktop/router/Project/Assets/Plugins/Router Messaging System Pages: 1 -->
<svg width="743pt" height="111pt"
 viewBox="0.00 0.00 743.00 111.00" xmlns="http://www.w3.org/2000/svg" xmlns:xlink="http://www.w3.org/1999/xlink">
<g id="graph0" class="graph" transform="scale(1 1) rotate(0) translate(4 107)">
<title>/mnt/c/Users/Philip/Desktop/router/Project/Assets/Plugins/Router Messaging System</title>
<polygon fill="white" stroke="none" points="-4,4 -4,-107 739,-107 739,4 -4,4"/>
<g id="clust1" class="cluster"><title>clusterdir_b5c0ad125fda175bded5335c6e0b3543</title>
<g id="a_clust1"><a xlink:href="dir_b5c0ad125fda175bded5335c6e0b3543.html" target="_top" xlink:title="Plugins">
<polygon fill="#ddddee" stroke="black" points="8,-8 8,-95 727,-95 727,-8 8,-8"/>
<text text-anchor="middle" x="367.5" y="-83" font-family="Helvetica,sans-Serif" font-size="10.00">Plugins</text>
</a>
</g>
</g>
<g id="clust2" class="cluster"><title>clusterdir_b9153762626c4c54c9f7fb8eedc47a78</title>
<g id="a_clust2"><a xlink:href="dir_b9153762626c4c54c9f7fb8eedc47a78.html" target="_top">
<polygon fill="#eeeeff" stroke="black" points="16,-16 16,-68 719,-68 719,-16 16,-16"/>
</a>
</g>
</g>
<!-- dir_b9153762626c4c54c9f7fb8eedc47a78 -->
<g id="node1" class="node"><title>dir_b9153762626c4c54c9f7fb8eedc47a78</title>
<text text-anchor="middle" x="644" y="-39.5" font-family="Helvetica,sans-Serif" font-size="10.00">Router Messaging System</text>
</g>
<!-- dir_a7c2d28578c5f9dda0650c8b3bebdf90 -->
<g id="node2" class="node"><title>dir_a7c2d28578c5f9dda0650c8b3bebdf90</title>
<g id="a_node2"><a xlink:href="dir_a7c2d28578c5f9dda0650c8b3bebdf90.html" target="_top" xlink:title="Documentation">
<polygon fill="white" stroke="black" points="559.25,-60 476.75,-60 476.75,-24 559.25,-24 559.25,-60"/>
<text text-anchor="middle" x="518" y="-39.5" font-family="Helvetica,sans-Serif" font-size="10.00">Documentation</text>
</a>
</g>
</g>
<!-- dir_de2a14ac9631bf0a26a411b07c406663 -->
<g id="node3" class="node"><title>dir_de2a14ac9631bf0a26a411b07c406663</title>
<g id="a_node3"><a xlink:href="dir_de2a14ac9631bf0a26a411b07c406663.html" target="_top" xlink:title="Hubs">
<polygon fill="white" stroke="black" points="458,-60 404,-60 404,-24 458,-24 458,-60"/>
<text text-anchor="middle" x="431" y="-39.5" font-family="Helvetica,sans-Serif" font-size="10.00">Hubs</text>
</a>
</g>
</g>
<!-- dir_ee417f8834656c568581439a50672df4 -->
<g id="node4" class="node"><title>dir_ee417f8834656c568581439a50672df4</title>
<g id="a_node4"><a xlink:href="dir_ee417f8834656c568581439a50672df4.html" target="_top" xlink:title="Interfaces">
<polygon fill="white" stroke="black" points="385.5,-60 326.5,-60 326.5,-24 385.5,-24 385.5,-60"/>
<text text-anchor="middle" x="356" y="-39.5" font-family="Helvetica,sans-Serif" font-size="10.00">Interfaces</text>
</a>
</g>
</g>
<!-- dir_79e576cd475529e4e414a7059be572f2 -->
<g id="node5" class="node"><title>dir_79e576cd475529e4e414a7059be572f2</title>
<g id="a_node5"><a xlink:href="dir_79e576cd475529e4e414a7059be572f2.html" target="_top" xlink:title="Misc">
<polygon fill="white" stroke="black" points="308,-60 254,-60 254,-24 308,-24 308,-60"/>
<text text-anchor="middle" x="281" y="-39.5" font-family="Helvetica,sans-Serif" font-size="10.00">Misc</text>
</a>
</g>
</g>
<!-- dir_5d27f46ca1da7528cf5b862db7ea216a -->
<g id="node6" class="node"><title>dir_5d27f46ca1da7528cf5b862db7ea216a</title>
<g id="a_node6"><a xlink:href="dir_5d27f46ca1da7528cf5b862db7ea216a.html" target="_top" xlink:title="Parameters">
<polygon fill="white" stroke="black" points="235.25,-60 168.75,-60 168.75,-24 235.25,-24 235.25,-60"/>
<text text-anchor="middle" x="202" y="-39.5" font-family="Helvetica,sans-Serif" font-size="10.00">Parameters</text>
</a>
</g>
</g>
<!-- dir_9b03a082fd188e431d2249e59b725049 -->
<g id="node7" class="node"><title>dir_9b03a082fd188e431d2249e59b725049</title>
<g id="a_node7"><a xlink:href="dir_9b03a082fd188e431d2249e59b725049.html" target="_top" xlink:title="Routers">
<polygon fill="white" stroke="black" points="150,-60 96,-60 96,-24 150,-24 150,-60"/>
<text text-anchor="middle" x="123" y="-39.5" font-family="Helvetica,sans-Serif" font-size="10.00">Routers</text>
</a>
</g>
</g>
<!-- dir_9a9eab036ee1a6f29fd3bc1173c600e3 -->
<g id="node8" class="node"><title>dir_9a9eab036ee1a6f29fd3bc1173c600e3</title>
<g id="a_node8"><a xlink:href="dir_9a9eab036ee1a6f29fd3bc1173c600e3.html" target="_top" xlink:title="Routes">
<polygon fill="white" stroke="black" points="78,-60 24,-60 24,-24 78,-24 78,-60"/>
<text text-anchor="middle" x="51" y="-39.5" font-family="Helvetica,sans-Serif" font-size="10.00">Routes</text>
</a>
</g>
</g>
</g>
</svg>
