<?xml version="1.0" encoding="UTF-8" standalone="no"?>
<!DOCTYPE svg PUBLIC "-//W3C//DTD SVG 1.1//EN"
 "http://www.w3.org/Graphics/SVG/1.1/DTD/svg11.dtd">
<!-- Generated by graphviz version 2.36.0 (20140111.2315)
 -->
<!-- Title: Graphical Class Hierarchy Pages: 1 -->
<svg width="422pt" height="213pt"
 viewBox="0.00 0.00 422.00 213.00" xmlns="http://www.w3.org/2000/svg" xmlns:xlink="http://www.w3.org/1999/xlink">
<g id="graph0" class="graph" transform="scale(1 1) rotate(0) translate(4 209)">
<title>Graphical Class Hierarchy</title>
<polygon fill="white" stroke="none" points="-4,4 -4,-209 418,-209 418,4 -4,4"/>
<!-- Node1 -->
<g id="node1" class="node"><title>Node1</title>
<g id="a_node1"><a xlink:href="interface_router_messaging_system_1_1_i_routable_3_01_t_01_4.html" target="_top" xlink:title="Interface defining routable objects. ">
<polygon fill="white" stroke="black" points="0,-103.5 0,-122.5 196,-122.5 196,-103.5 0,-103.5"/>
<text text-anchor="middle" x="98" y="-110.5" font-family="Helvetica,sans-Serif" font-size="10.00">RouterMessagingSystem.IRoutable&lt; T &gt;</text>
</a>
</g>
</g>
<!-- Node2 -->
<g id="node2" class="node"><title>Node2</title>
<g id="a_node2"><a xlink:href="struct_router_messaging_system_1_1_route.html" target="_top" xlink:title="A route to a function that accepts no parameters and returns nothing. ">
<polygon fill="white" stroke="black" points="245,-185.5 245,-204.5 401,-204.5 401,-185.5 245,-185.5"/>
<text text-anchor="middle" x="323" y="-192.5" font-family="Helvetica,sans-Serif" font-size="10.00">RouterMessagingSystem.Route</text>
</a>
</g>
</g>
<!-- Node1&#45;&gt;Node2 -->
<g id="edge1" class="edge"><title>Node1&#45;&gt;Node2</title>
<path fill="none" stroke="midnightblue" d="M125.025,-127.577C151.3,-141.749 193.403,-162.986 232,-176 243.047,-179.725 255.111,-182.87 266.716,-185.464"/>
<polygon fill="midnightblue" stroke="midnightblue" points="126.552,-124.423 116.097,-122.704 123.198,-130.567 126.552,-124.423"/>
</g>
<!-- Node3 -->
<g id="node3" class="node"><title>Node3</title>
<g id="a_node3"><a xlink:href="struct_router_messaging_system_1_1_route_3_01_r_01_4.html" target="_top" xlink:title="A route to a function that accepts no parameters and returns an object of type R. ...">
<polygon fill="white" stroke="black" points="232,-147.5 232,-166.5 414,-166.5 414,-147.5 232,-147.5"/>
<text text-anchor="middle" x="323" y="-154.5" font-family="Helvetica,sans-Serif" font-size="10.00">RouterMessagingSystem.Route&lt; R &gt;</text>
</a>
</g>
</g>
<!-- Node1&#45;&gt;Node3 -->
<g id="edge2" class="edge"><title>Node1&#45;&gt;Node3</title>
<path fill="none" stroke="midnightblue" d="M157.326,-124.508C193.545,-131.655 239.538,-140.73 273.707,-147.471"/>
<polygon fill="midnightblue" stroke="midnightblue" points="157.876,-121.049 147.388,-122.547 156.521,-127.917 157.876,-121.049"/>
</g>
<!-- Node4 -->
<g id="node4" class="node"><title>Node4</title>
<g id="a_node4"><a xlink:href="struct_router_messaging_system_1_1_route_3_01_r_00_01_t_01_4.html" target="_top" xlink:title="A route to a function that accepts one parameter of type T and returns an object of type R...">
<polygon fill="white" stroke="black" points="245,-98 245,-128 401,-128 401,-98 245,-98"/>
<text text-anchor="start" x="253" y="-116" font-family="Helvetica,sans-Serif" font-size="10.00">RouterMessagingSystem.Route</text>
<text text-anchor="middle" x="323" y="-105" font-family="Helvetica,sans-Serif" font-size="10.00">&lt; R, T &gt;</text>
</a>
</g>
</g>
<!-- Node1&#45;&gt;Node4 -->
<g id="edge3" class="edge"><title>Node1&#45;&gt;Node4</title>
<path fill="none" stroke="midnightblue" d="M206.529,-113C219.49,-113 232.524,-113 244.927,-113"/>
<polygon fill="midnightblue" stroke="midnightblue" points="206.162,-109.5 196.162,-113 206.162,-116.5 206.162,-109.5"/>
</g>
<!-- Node5 -->
<g id="node5" class="node"><title>Node5</title>
<g id="a_node5"><a xlink:href="struct_router_messaging_system_1_1_route_3_01_r_00_01_t1_00_01_t2_01_4.html" target="_top" xlink:title="A route to a function that accepts one parameter each of type T1 and T2 and returns an object of type...">
<polygon fill="white" stroke="black" points="245,-49 245,-79 401,-79 401,-49 245,-49"/>
<text text-anchor="start" x="253" y="-67" font-family="Helvetica,sans-Serif" font-size="10.00">RouterMessagingSystem.Route</text>
<text text-anchor="middle" x="323" y="-56" font-family="Helvetica,sans-Serif" font-size="10.00">&lt; R, T1, T2 &gt;</text>
</a>
</g>
</g>
<!-- Node1&#45;&gt;Node5 -->
<g id="edge4" class="edge"><title>Node1&#45;&gt;Node5</title>
<path fill="none" stroke="midnightblue" d="M152.217,-101.307C182.536,-94.6446 220.853,-86.2251 253.41,-79.0713"/>
<polygon fill="midnightblue" stroke="midnightblue" points="151.277,-97.9296 142.261,-103.494 152.779,-104.766 151.277,-97.9296"/>
</g>
<!-- Node6 -->
<g id="node6" class="node"><title>Node6</title>
<g id="a_node6"><a xlink:href="struct_router_messaging_system_1_1_route_3_01_r_00_01_t1_00_01_t2_00_01_t3_01_4.html" target="_top" xlink:title="A route to a function that accepts one parameter each of type T1, T2 and T3 and returns an object of ...">
<polygon fill="white" stroke="black" points="245,-0 245,-30 401,-30 401,-0 245,-0"/>
<text text-anchor="start" x="253" y="-18" font-family="Helvetica,sans-Serif" font-size="10.00">RouterMessagingSystem.Route</text>
<text text-anchor="middle" x="323" y="-7" font-family="Helvetica,sans-Serif" font-size="10.00">&lt; R, T1, T2, T3 &gt;</text>
</a>
</g>
</g>
<!-- Node1&#45;&gt;Node6 -->
<g id="edge5" class="edge"><title>Node1&#45;&gt;Node6</title>
<path fill="none" stroke="midnightblue" d="M122.742,-97.7638C148.725,-81.6229 192.019,-56.2692 232,-40 241.012,-36.3326 250.744,-33.0111 260.363,-30.0746"/>
<polygon fill="midnightblue" stroke="midnightblue" points="120.598,-94.9773 113.991,-103.26 124.321,-100.905 120.598,-94.9773"/>
</g>
</g>
</svg>
