<?xml version="1.0" encoding="UTF-8" standalone="no"?>
<!DOCTYPE svg PUBLIC "-//W3C//DTD SVG 1.1//EN"
 "http://www.w3.org/Graphics/SVG/1.1/DTD/svg11.dtd">
<!-- Generated by graphviz version 2.36.0 (20140111.2315)
 -->
<!-- Title: Graphical Class Hierarchy Pages: 1 -->
<svg width="418pt" height="213pt"
 viewBox="0.00 0.00 418.00 213.00" xmlns="http://www.w3.org/2000/svg" xmlns:xlink="http://www.w3.org/1999/xlink">
<g id="graph0" class="graph" transform="scale(1 1) rotate(0) translate(4 209)">
<title>Graphical Class Hierarchy</title>
<polygon fill="white" stroke="none" points="-4,4 -4,-209 414,-209 414,4 -4,4"/>
<!-- Node1 -->
<g id="node1" class="node"><title>Node1</title>
<g id="a_node1"><a xlink:href="interface_router_messaging_system_1_1_i_routable_3_01_t_01_4.html" target="_top" xlink:title="Interface defining routable objects. ">
<polygon fill="white" stroke="black" points="0.5,-103.5 0.5,-122.5 193.5,-122.5 193.5,-103.5 0.5,-103.5"/>
<text text-anchor="middle" x="97" y="-110.5" font-family="Helvetica,sans-Serif" font-size="10.00">RouterMessagingSystem.IRoutable&lt; T &gt;</text>
</a>
</g>
</g>
<!-- Node2 -->
<g id="node2" class="node"><title>Node2</title>
<g id="a_node2"><a xlink:href="struct_router_messaging_system_1_1_route.html" target="_top" xlink:title="A route to a function that accepts no parameters and returns nothing. ">
<polygon fill="white" stroke="black" points="242.5,-185.5 242.5,-204.5 397.5,-204.5 397.5,-185.5 242.5,-185.5"/>
<text text-anchor="middle" x="320" y="-192.5" font-family="Helvetica,sans-Serif" font-size="10.00">RouterMessagingSystem.Route</text>
</a>
</g>
</g>
<!-- Node1&#45;&gt;Node2 -->
<g id="edge1" class="edge"><title>Node1&#45;&gt;Node2</title>
<path fill="none" stroke="midnightblue" d="M123.821,-127.569C149.892,-141.734 191.674,-162.966 230,-176 240.919,-179.714 252.848,-182.854 264.323,-185.447"/>
<polygon fill="midnightblue" stroke="midnightblue" points="125.412,-124.449 114.963,-122.698 122.039,-130.583 125.412,-124.449"/>
</g>
<!-- Node3 -->
<g id="node3" class="node"><title>Node3</title>
<g id="a_node3"><a xlink:href="struct_router_messaging_system_1_1_route_3_01_r_01_4.html" target="_top" xlink:title="A route to a function that accepts no parameters and returns an object of type R. ...">
<polygon fill="white" stroke="black" points="230.5,-147.5 230.5,-166.5 409.5,-166.5 409.5,-147.5 230.5,-147.5"/>
<text text-anchor="middle" x="320" y="-154.5" font-family="Helvetica,sans-Serif" font-size="10.00">RouterMessagingSystem.Route&lt; R &gt;</text>
</a>
</g>
</g>
<!-- Node1&#45;&gt;Node3 -->
<g id="edge2" class="edge"><title>Node1&#45;&gt;Node3</title>
<path fill="none" stroke="midnightblue" d="M155.803,-124.508C191.697,-131.655 237.278,-140.73 271.14,-147.471"/>
<polygon fill="midnightblue" stroke="midnightblue" points="156.445,-121.067 145.954,-122.547 155.078,-127.933 156.445,-121.067"/>
</g>
<!-- Node4 -->
<g id="node4" class="node"><title>Node4</title>
<g id="a_node4"><a xlink:href="struct_router_messaging_system_1_1_route_3_01_r_00_01_t_01_4.html" target="_top" xlink:title="A route to a function that accepts one parameter of type T and returns an object of type R...">
<polygon fill="white" stroke="black" points="242.5,-98 242.5,-128 397.5,-128 397.5,-98 242.5,-98"/>
<text text-anchor="start" x="250.5" y="-116" font-family="Helvetica,sans-Serif" font-size="10.00">RouterMessagingSystem.Route</text>
<text text-anchor="middle" x="320" y="-105" font-family="Helvetica,sans-Serif" font-size="10.00">&lt; R, T &gt;</text>
</a>
</g>
</g>
<!-- Node1&#45;&gt;Node4 -->
<g id="edge3" class="edge"><title>Node1&#45;&gt;Node4</title>
<path fill="none" stroke="midnightblue" d="M203.954,-113C216.843,-113 229.815,-113 242.167,-113"/>
<polygon fill="midnightblue" stroke="midnightblue" points="203.649,-109.5 193.648,-113 203.648,-116.5 203.649,-109.5"/>
</g>
<!-- Node5 -->
<g id="node5" class="node"><title>Node5</title>
<g id="a_node5"><a xlink:href="struct_router_messaging_system_1_1_route_3_01_r_00_01_t1_00_01_t2_01_4.html" target="_top" xlink:title="A route to a function that accepts one parameter each of type T1 and T2 and returns an object of type...">
<polygon fill="white" stroke="black" points="242.5,-49 242.5,-79 397.5,-79 397.5,-49 242.5,-49"/>
<text text-anchor="start" x="250.5" y="-67" font-family="Helvetica,sans-Serif" font-size="10.00">RouterMessagingSystem.Route</text>
<text text-anchor="middle" x="320" y="-56" font-family="Helvetica,sans-Serif" font-size="10.00">&lt; R, T1, T2 &gt;</text>
</a>
</g>
</g>
<!-- Node1&#45;&gt;Node5 -->
<g id="edge4" class="edge"><title>Node1&#45;&gt;Node5</title>
<path fill="none" stroke="midnightblue" d="M150.739,-101.307C180.787,-94.6446 218.76,-86.2251 251.025,-79.0713"/>
<polygon fill="midnightblue" stroke="midnightblue" points="149.878,-97.9125 140.873,-103.494 151.394,-104.747 149.878,-97.9125"/>
</g>
<!-- Node6 -->
<g id="node6" class="node"><title>Node6</title>
<g id="a_node6"><a xlink:href="struct_router_messaging_system_1_1_route_3_01_r_00_01_t1_00_01_t2_00_01_t3_01_4.html" target="_top" xlink:title="A route to a function that accepts one parameter each of type T1, T2 and T3 and returns an object of ...">
<polygon fill="white" stroke="black" points="242.5,-0 242.5,-30 397.5,-30 397.5,-0 242.5,-0"/>
<text text-anchor="start" x="250.5" y="-18" font-family="Helvetica,sans-Serif" font-size="10.00">RouterMessagingSystem.Route</text>
<text text-anchor="middle" x="320" y="-7" font-family="Helvetica,sans-Serif" font-size="10.00">&lt; R, T1, T2, T3 &gt;</text>
</a>
</g>
</g>
<!-- Node1&#45;&gt;Node6 -->
<g id="edge5" class="edge"><title>Node1&#45;&gt;Node6</title>
<path fill="none" stroke="midnightblue" d="M121.556,-97.7743C147.336,-81.6423 190.299,-56.2961 230,-40 238.908,-36.3433 248.53,-33.0274 258.041,-30.0934"/>
<polygon fill="midnightblue" stroke="midnightblue" points="119.453,-94.963 112.873,-103.267 123.195,-100.879 119.453,-94.963"/>
</g>
</g>
</svg>
