<?xml version="1.0" encoding="UTF-8" standalone="no"?>
<!DOCTYPE svg PUBLIC "-//W3C//DTD SVG 1.1//EN"
 "http://www.w3.org/Graphics/SVG/1.1/DTD/svg11.dtd">
<!-- Generated by graphviz version 2.36.0 (20140111.2315)
 -->
<!-- Title: RouterMessagingSystem.Route&lt; R, T1, T2, T3 &gt; Pages: 1 -->
<svg width="162pt" height="108pt"
 viewBox="0.00 0.00 162.00 108.00" xmlns="http://www.w3.org/2000/svg" xmlns:xlink="http://www.w3.org/1999/xlink">
<g id="graph0" class="graph" transform="scale(1 1) rotate(0) translate(4 104)">
<title>RouterMessagingSystem.Route&lt; R, T1, T2, T3 &gt;</title>
<polygon fill="white" stroke="none" points="-4,4 -4,-104 158,-104 158,4 -4,4"/>
<!-- Node1 -->
<g id="node1" class="node"><title>Node1</title>
<polygon fill="#bfbfbf" stroke="black" points="-0.5,-1 -0.5,-31 154.5,-31 154.5,-1 -0.5,-1"/>
<text text-anchor="start" x="7.5" y="-19" font-family="Helvetica,sans-Serif" font-size="10.00">RouterMessagingSystem.Route</text>
<text text-anchor="middle" x="77" y="-8" font-family="Helvetica,sans-Serif" font-size="10.00">&lt; R, T1, T2, T3 &gt;</text>
</g>
<!-- Node2 -->
<g id="node2" class="node"><title>Node2</title>
<g id="a_node2"><a xlink:href="interface_router_messaging_system_1_1_i_routable_3_01_t_01_4.html" target="_top" xlink:title="Interface defining routable objects. ">
<polygon fill="white" stroke="black" points="22,-69 22,-99 132,-99 132,-69 22,-69"/>
<text text-anchor="start" x="30" y="-87" font-family="Helvetica,sans-Serif" font-size="10.00">IRoutable&lt; Route&lt; R,</text>
<text text-anchor="middle" x="77" y="-76" font-family="Helvetica,sans-Serif" font-size="10.00"> T1, T2, T3 &gt;&gt;</text>
</a>
</g>
</g>
<!-- Node2&#45;&gt;Node1 -->
<g id="edge1" class="edge"><title>Node2&#45;&gt;Node1</title>
<path fill="none" stroke="midnightblue" d="M77,-58.5322C77,-49.3606 77,-39.2449 77,-31.2931"/>
<polygon fill="midnightblue" stroke="midnightblue" points="73.5001,-58.6789 77,-68.679 80.5001,-58.679 73.5001,-58.6789"/>
</g>
</g>
</svg>
