<?xml version="1.0" encoding="UTF-8" standalone="no"?>
<!DOCTYPE svg PUBLIC "-//W3C//DTD SVG 1.1//EN"
 "http://www.w3.org/Graphics/SVG/1.1/DTD/svg11.dtd">
<!-- Generated by graphviz version 2.36.0 (20140111.2315)
 -->
<!-- Title: RouterMessagingSystem.Route.Equals Pages: 1 -->
<svg width="556pt" height="38pt"
 viewBox="0.00 0.00 556.00 38.00" xmlns="http://www.w3.org/2000/svg" xmlns:xlink="http://www.w3.org/1999/xlink">
<g id="graph0" class="graph" transform="scale(1 1) rotate(0) translate(4 34)">
<title>RouterMessagingSystem.Route.Equals</title>
<polygon fill="white" stroke="none" points="-4,4 -4,-34 552,-34 552,4 -4,4"/>
<!-- Node1 -->
<g id="node1" class="node"><title>Node1</title>
<polygon fill="#bfbfbf" stroke="black" points="0.5,-0 0.5,-30 159.5,-30 159.5,-0 0.5,-0"/>
<text text-anchor="start" x="8.5" y="-18" font-family="Helvetica,sans-Serif" font-size="10.00">RouterMessagingSystem.Route.</text>
<text text-anchor="middle" x="80" y="-7" font-family="Helvetica,sans-Serif" font-size="10.00">Equals</text>
</g>
<!-- Node2 -->
<g id="node2" class="node"><title>Node2</title>
<g id="a_node2"><a xlink:href="struct_router_messaging_system_1_1_route.html#aa66a3feb1402e38cd800aedff7e347cd" target="_top" xlink:title="Constructor that accepts a Component, a RoutePointer and a RoutingEvent. ">
<polygon fill="white" stroke="black" points="196.5,-0 196.5,-30 355.5,-30 355.5,-0 196.5,-0"/>
<text text-anchor="start" x="204.5" y="-18" font-family="Helvetica,sans-Serif" font-size="10.00">RouterMessagingSystem.Route.</text>
<text text-anchor="middle" x="276" y="-7" font-family="Helvetica,sans-Serif" font-size="10.00">Route</text>
</a>
</g>
</g>
<!-- Node1&#45;&gt;Node2 -->
<g id="edge1" class="edge"><title>Node1&#45;&gt;Node2</title>
<path fill="none" stroke="midnightblue" d="M159.628,-15C168.309,-15 177.194,-15 185.992,-15"/>
<polygon fill="midnightblue" stroke="midnightblue" points="186.261,-18.5001 196.26,-15 186.26,-11.5001 186.261,-18.5001"/>
</g>
<!-- Node3 -->
<g id="node3" class="node"><title>Node3</title>
<g id="a_node3"><a xlink:href="namespace_router_messaging_system.html#a4f3d5cc295a94c6034645b81af7bf9cc" target="_top" xlink:title="Function that doesn&#39;t accept or return any parameters. ">
<polygon fill="white" stroke="black" points="392,-0 392,-30 548,-30 548,-0 392,-0"/>
<text text-anchor="start" x="400" y="-18" font-family="Helvetica,sans-Serif" font-size="10.00">RouterMessagingSystem.Route</text>
<text text-anchor="middle" x="470" y="-7" font-family="Helvetica,sans-Serif" font-size="10.00">Pointer</text>
</a>
</g>
</g>
<!-- Node2&#45;&gt;Node3 -->
<g id="edge2" class="edge"><title>Node2&#45;&gt;Node3</title>
<path fill="none" stroke="midnightblue" d="M355.648,-15C364.208,-15 372.958,-15 381.614,-15"/>
<polygon fill="midnightblue" stroke="midnightblue" points="381.716,-18.5001 391.716,-15 381.716,-11.5001 381.716,-18.5001"/>
</g>
</g>
</svg>
